<svg width="16" height="16" viewBox="0 0 16 16" fill="none" xmlns="http://www.w3.org/2000/svg">
<path d="M11.5762 3.57568C11.8105 3.34137 12.1905 3.34137 12.4248 3.57568C12.659 3.81 12.6591 4.19003 12.4248 4.42432L8.84863 7.99951L12.4248 11.5757C12.659 11.81 12.6591 12.19 12.4248 12.4243C12.1905 12.6585 11.8105 12.6585 11.5762 12.4243L8 8.84814L4.4248 12.4243C4.19055 12.6584 3.81046 12.6583 3.57617 12.4243C3.3419 12.1901 3.34199 11.81 3.57617 11.5757L7.15137 7.99951L3.57617 4.42432C3.34186 4.19 3.34186 3.80999 3.57617 3.57568C3.81049 3.34148 4.19052 3.34143 4.4248 3.57568L8 7.15088L11.5762 3.57568Z" fill="#2E2E2E"/>
</svg>
