<svg width="14" height="14" viewBox="0 0 14 14" fill="none" xmlns="http://www.w3.org/2000/svg">
<g clip-path="url(#clip0_2006_1880)">
<path d="M12.7139 5.83172C12.9802 7.1388 12.7904 8.49768 12.1761 9.68174C11.5618 10.8658 10.5601 11.8035 9.33815 12.3384C8.11617 12.8734 6.74774 12.9732 5.46106 12.6213C4.17438 12.2694 3.04722 11.487 2.26756 10.4047C1.4879 9.3223 1.10286 8.00537 1.17666 6.67347C1.25046 5.34158 1.77863 4.07524 2.67309 3.08563C3.56755 2.09603 4.77424 1.44297 6.09192 1.23537C7.4096 1.02778 8.75863 1.27818 9.91403 1.94484" stroke="#2E2E2E" stroke-width="1.16636" stroke-linecap="round" stroke-linejoin="round"/>
<path d="M5.2486 6.41501L6.99813 8.16455L12.8299 2.33276" stroke="#2E2E2E" stroke-width="1.16636" stroke-linecap="round" stroke-linejoin="round"/>
</g>
<defs>
<clipPath id="clip0_2006_1880">
<rect width="13.9963" height="13.9963" fill="white"/>
</clipPath>
</defs>
</svg>
