<svg width="16" height="16" viewBox="0 0 16 16" fill="none" xmlns="http://www.w3.org/2000/svg">
<path fill-rule="evenodd" clip-rule="evenodd" d="M14.3032 3.6105C14.4314 3.80458 14.41 4.06832 14.2392 4.23917L8.11089 10.3674C8.04808 10.4302 7.96965 10.4752 7.8837 10.4976L5.33142 11.1643C5.24817 11.1861 5.16237 11.1856 5.08174 11.1651C4.99603 11.1433 4.91619 11.0988 4.85151 11.0341C4.72599 10.9086 4.67643 10.7259 4.72129 10.5542L5.38796 8.00189C5.4076 7.92669 5.44447 7.85241 5.49546 7.79414L11.6464 1.64645C11.7003 1.5926 11.7651 1.55231 11.8357 1.52775C11.888 1.50955 11.9435 1.5 12 1.5C12.1326 1.5 12.2598 1.55268 12.3535 1.64645L14.2392 3.53206C14.2636 3.55647 14.2849 3.58278 14.3032 3.6105ZM13.1785 3.88562L12 2.70711L6.3212 8.38588L5.90455 9.98106L7.49972 9.56439L13.1785 3.88562Z" fill="#2E2E2E"/>
<path d="M13.0942 11.4402C13.2765 9.8818 13.3345 8.31252 13.2682 6.74719C13.265 6.67225 13.2932 6.59932 13.3463 6.54628L14.0018 5.89073C14.0824 5.81013 14.2201 5.86129 14.2277 5.97503C14.351 7.8348 14.3042 9.70302 14.0874 11.5564C13.9297 12.9047 12.8469 13.9614 11.5055 14.1113C9.19443 14.3696 6.80554 14.3696 4.49449 14.1113C3.15312 13.9614 2.07023 12.9047 1.91253 11.5564C1.63617 9.19351 1.63617 6.80649 1.91253 4.44362C2.07023 3.09527 3.15312 2.03859 4.49449 1.88867C6.24766 1.69273 8.04562 1.64543 9.82041 1.74677C9.9348 1.75331 9.98694 1.89172 9.90593 1.97273L9.24423 2.63443C9.19176 2.6869 9.11982 2.71507 9.04567 2.71257C7.56139 2.66251 6.06702 2.71915 4.60557 2.88249C3.71883 2.98159 3.0085 3.68134 2.90576 4.55979C2.63843 6.84547 2.63843 9.15452 2.90576 11.4402C3.0085 12.3187 3.71883 13.0184 4.60557 13.1175C6.8428 13.3675 9.15718 13.3675 11.3944 13.1175C12.2811 13.0184 12.9915 12.3187 13.0942 11.4402Z" fill="#2E2E2E"/>
</svg>
