<svg width="16" height="16" viewBox="0 0 16 16" fill="none" xmlns="http://www.w3.org/2000/svg">
<path fill-rule="evenodd" clip-rule="evenodd" d="M13.5742 12.3863C13.3038 12.6467 12.9453 12.8141 12.5502 12.8424L11.4583 12.9205C9.15572 13.0853 6.84433 13.0853 4.54176 12.9205L3.53242 12.8483C2.73507 12.7913 2.0774 12.2018 1.93372 11.4155C1.64261 9.82218 1.59277 8.19419 1.78588 6.5861L1.96754 5.07336C2.07534 4.17562 2.83694 3.5 3.74113 3.5H5.26884C6.01401 3.5 6.63486 4.03231 6.77187 4.73741L12.3148 4.73741C13.1857 4.73741 13.9275 5.37022 14.0648 6.23024L14.1075 6.49786C14.1165 6.55409 14.1252 6.61036 14.1335 6.66667H14.3575C15.3391 6.66667 16.014 7.65322 15.6582 8.56808L14.8252 10.71C14.5666 11.3751 14.1326 11.9534 13.5742 12.3863ZM13.0773 6.38786L13.12 6.65548C13.1206 6.65921 13.1212 6.66294 13.1218 6.66667H6.91364C6.1565 6.66667 5.47725 7.1321 5.20393 7.83818L3.64937 11.8541L3.60378 11.8509C3.26147 11.8264 2.97912 11.5733 2.91743 11.2357C2.64435 9.74108 2.59759 8.21387 2.77875 6.70533L2.9604 5.19259C3.00786 4.7974 3.34311 4.5 3.74113 4.5H5.26884C5.56221 4.5 5.80002 4.73782 5.80002 5.03118C5.80002 5.42122 6.11621 5.73741 6.50626 5.73741H12.3148C12.6943 5.73741 13.0175 6.01314 13.0773 6.38786ZM4.6928 11.9287C6.92149 12.0844 9.15843 12.0825 11.3869 11.9231L12.4788 11.845L12.6086 11.8328L12.6076 11.8312C13.1947 11.5 13.6489 10.9757 13.8932 10.3475L14.7262 8.20563C14.827 7.94631 14.6357 7.66667 14.3575 7.66667H6.91364C6.56949 7.66667 6.26073 7.87823 6.1365 8.19917L4.6928 11.9287Z" fill="#2E2E2E"/>
</svg>
