<svg width="20" height="20" viewBox="0 0 20 20" fill="none" xmlns="http://www.w3.org/2000/svg">
<path d="M4.1665 4.16667C4.16642 3.87342 4.24371 3.58533 4.39057 3.3315C4.53744 3.07767 4.74868 2.86708 5.00296 2.721C5.25725 2.57492 5.54557 2.49853 5.83883 2.49952C6.13208 2.50052 6.41988 2.57887 6.67317 2.72667L16.6707 8.55834C16.923 8.70474 17.1324 8.91479 17.2781 9.16751C17.4238 9.42023 17.5006 9.70675 17.5009 9.99845C17.5011 10.2902 17.4248 10.5768 17.2796 10.8298C17.1343 11.0828 16.9252 11.2932 16.6732 11.44L6.67317 17.2733C6.41988 17.4211 6.13208 17.4995 5.83883 17.5005C5.54557 17.5015 5.25725 17.4251 5.00296 17.279C4.74868 17.1329 4.53744 16.9223 4.39057 16.6685C4.24371 16.4147 4.16642 16.1266 4.1665 15.8333V4.16667Z" stroke="#7E9C12" stroke-width="1.66667" stroke-linecap="round" stroke-linejoin="round"/>
</svg>
