<svg width="16" height="16" viewBox="0 0 16 16" fill="none" xmlns="http://www.w3.org/2000/svg">
<path d="M6.66665 1.5C6.3905 1.5 6.16665 1.72386 6.16665 2V2.5H3.33331C3.05717 2.5 2.83331 2.72386 2.83331 3C2.83331 3.27614 3.05717 3.5 3.33331 3.5H12.6666C12.9428 3.5 13.1666 3.27614 13.1666 3C13.1666 2.72386 12.9428 2.5 12.6666 2.5H9.83331V2C9.83331 1.72386 9.60945 1.5 9.33331 1.5H6.66665Z" fill="#2E2E2E"/>
<path d="M6.66665 7.1C6.94279 7.1 7.16665 7.32385 7.16665 7.6L7.16665 12.2667C7.16665 12.5428 6.94279 12.7667 6.66665 12.7667C6.3905 12.7667 6.16665 12.5428 6.16665 12.2667L6.16665 7.6C6.16665 7.32385 6.3905 7.1 6.66665 7.1Z" fill="#2E2E2E"/>
<path d="M9.83331 7.6C9.83331 7.32385 9.60945 7.1 9.33331 7.1C9.05717 7.1 8.83331 7.32385 8.83331 7.6V12.2667C8.83331 12.5428 9.05717 12.7667 9.33331 12.7667C9.60945 12.7667 9.83331 12.5428 9.83331 12.2667V7.6Z" fill="#2E2E2E"/>
<path fill-rule="evenodd" clip-rule="evenodd" d="M3.99426 5.27812C4.0224 5.0249 4.23643 4.83333 4.4912 4.83333H11.5087C11.7635 4.83333 11.9776 5.0249 12.0057 5.27812L12.1391 6.47902C12.381 8.6559 12.381 10.8529 12.1391 13.0298L12.126 13.148C12.03 14.0121 11.3603 14.7011 10.4993 14.8216C8.84115 15.0538 7.1588 15.0538 5.5007 14.8216C4.63967 14.7011 3.96998 14.0121 3.87397 13.148L3.86083 13.0298C3.61895 10.8529 3.61895 8.6559 3.86083 6.47901L3.99426 5.27812ZM4.93873 5.83333L4.85471 6.58945C4.62099 8.69293 4.62099 10.8158 4.85471 12.9193L4.86785 13.0375C4.91338 13.4474 5.231 13.7741 5.63935 13.8313C7.20546 14.0506 8.79449 14.0506 10.3606 13.8313C10.769 13.7741 11.0866 13.4474 11.1321 13.0375L11.1452 12.9193C11.379 10.8158 11.379 8.69293 11.1452 6.58945L11.0612 5.83333H4.93873Z" fill="#2E2E2E"/>
</svg>
